<!-- Generate Icon -->
<svg width="24" height="24" fill="none" xmlns="http://www.w3.org/2000/svg">
    <path fill="#333333" d="M12,2C8.13,2,5,5.13,5,9c0,2.38,1.19,4.47,3,5.74V17c0,0.55,0.45,1,1,1h6c0.55,0,1-0.45,1-1v-2.26c1.81-1.27,3-3.36,3-5.74C19,5.13,15.87,2,12,2z"/>
    <path fill="#333333" d="M10,20v1h4v-1H10z"/>
    <path fill="#333333" d="M12,0L12,0c-0.6,0-1,0.4-1,1v2c0,0.6,0.4,1,1,1s1-0.4,1-1V1C13,0.4,12.6,0,12,0z"/>
    <path fill="#333333" d="M21,11h2c0.6,0,1-0.4,1-1s-0.4-1-1-1h-2c-0.6,0-1,0.4-1,1S20.4,11,21,11z"/>
    <path fill="#333333" d="M1,11h2c0.6,0,1-0.4,1-1s-0.4-1-1-1H1C0.4,9,0,9.4,0,10S0.4,11,1,11z"/>
    <path fill="#333333" d="M19.8,4.2c0.4-0.4,0.4-1,0-1.4s-1-0.4-1.4,0l-1.4,1.4c-0.4,0.4-0.4,1,0,1.4s1,0.4,1.4,0L19.8,4.2z"/>
    <path fill="#333333" d="M4.2,19.8c0.4-0.4,0.4-1,0-1.4s-1-0.4-1.4,0l-1.4,1.4c-0.4,0.4-0.4,1,0,1.4s1,0.4,1.4,0L4.2,19.8z"/>
</svg>